# xmcd CD database file
#
# Track frame offsets:
#	150
#	17980
#	36735
#	55132
#	78117
#	101595
#	120450
#	137277
#	170065
#	188652
#	212785
#	231660
#	249762
#
# Disc length: 3595 seconds
#
# Revision: 2
# Processed by: cddbd v1.5.2PL0 Copyright (c) Steve Scherf et al.
# Submitted via: CDex 1.51
#
DISCID=ae0e090d
DTITLE=Rambling Rovers - Weather Report
DYEAR=2002
DGENRE=Country
TTITLE0=spanish lady
TTITLE1=owê
TTITLE2=sally gardens
TTITLE3=jer o'connels polka
TTITLE4=minnezauber
TTITLE5=boys of killibegs
TTITLE6=reynard the fox
TTITLE7=loch lomond
TTITLE8=bonnie maid of life
TTITLE9=weather report
TTITLE10=danny boy
TTITLE11=star of the county down
TTITLE12=abschied am morgen
EXTD=YEAR: 2002
EXTT0=
EXTT1=
EXTT2=
EXTT3=
EXTT4=
EXTT5=
EXTT6=
EXTT7=
EXTT8=
EXTT9=
EXTT10=
EXTT11=
EXTT12=
PLAYORDER=
